{"title":"Top Chef S06E03 DSR XviD SHOTV [Dodecahedron]","uid":5077953,"size":368302080,"categoryP":"video","categoryS":"tv_shows","magnet":"?xt=urn:btih:62b732e59d1701ee93815b677f9d4e7b943adb78&amp;dn=Top+Chef+S06E03+DSR+XviD+SHOTV+%5BDodecahedron%5D&amp;tr=udp%3A%2F%2Ftracker.openbittorrent.com%3A80&amp;tr=udp%3A%2F%2Fopen.demonii.com%3A1337&amp;tr=udp%3A%2F%2Ftracker.coppersurfer.tk%3A6969&amp;tr=udp%3A%2F%2Fexodus.desync.com%3A6969","seeders":0,"leechers":0,"uploader":"Dodecahedron9","files":1,"time":1252025638,"description":"Top.Chef.S06E03.DSR.XviD-SHOTV.avi (351.3 MB)\n\nEP 6.3 Thunderbirds: The remaining contestants try to serve the 300 pilots and crew from the USAF Air Demonstration Squadron based at Nellis AFB with the same Pride, Precision and Professionalism on deck that the Thunderbirds show in the air. Guest judge: Mark Peel.\n\n\nNote: Usually I don't upload TV shows but for some reason this show is always late so I decided to upload it myself. Credit goes to ShoTV.\n\nInfo:\n\nGeneral\nFormat : AVI\nFormat/Info : Audio Video Interleave\nFile size : 351 MiB\nDuration : 54mn 51s\nOverall bit rate : 895 Kbps\nMovie name : top.chef.s06e03.dsr.xvid-shotv\nWriting application : VirtualDubMod 1.5.10.2 (build 2542/release)\nWriting library : VirtualDubMod build 2542/release\n\nVideo\nFormat : MPEG-4 Visual\nFormat profile : Streaming Video@L1\nFormat settings, BVOP : Yes\nFormat settings, QPel : No\nFormat settings, GMC : No warppoints\nFormat settings, Matrix : Custom\nCodec ID : XVID\nCodec ID/Hint : XviD\nDuration : 54mn 51s\nBit rate : 753 Kbps\nWidth : 512 pixels\nHeight : 384 pixels\nDisplay aspect ratio : 4/3\nFrame rate : 23.976 fps\nResolution : 8 bits\nColorimetry : 4:2:0\nScan type : Progressive\nBits/(Pixel*Frame) : 0.160\nStream size : 295 MiB (84%)\nWriting library : XviD 50\n\nAudio\nFormat : MPEG Audio\nFormat version : Version 1\nFormat profile : Layer 3\nCodec ID : 55\nCodec ID/Hint : MP3\nDuration : 54mn 51s\nBit rate mode : Variable\nBit rate : 130 Kbps\nMinimum bit rate : 138 Kbps\nChannel(s) : 2 channels\nSampling rate : 48.0 KHz\nResolution : 16 bits\nStream size : 50.8 MiB (14%)\nAlignment : Aligned on interleaves\nInterleave, duration : 24 ms (0.58 video frame)\nInterleave, preload duration : 557 ms\nWriting library : LAME3.98r\nEncoding settings : ABR","torrent":{"xt":"urn:btih:62b732e59d1701ee93815b677f9d4e7b943adb78","amp;dn":"Top+Chef+S06E03+DSR+XviD+SHOTV+%5BDodecahedron%5D","amp;tr":["udp%3A%2F%2Ftracker.openbittorrent.com%3A80","udp%3A%2F%2Fopen.demonii.com%3A1337","udp%3A%2F%2Ftracker.coppersurfer.tk%3A6969","udp%3A%2F%2Fexodus.desync.com%3A6969"],"infoHash":"62b732e59d1701ee93815b677f9d4e7b943adb78","infoHashBuffer":{"type":"Buffer","data":[98,183,50,229,157,23,1,238,147,129,91,103,127,157,78,123,148,58,219,120]},"announce":[],"urlList":[]}}